<svg width="250" height="250" viewBox="0 0 250 250" fill="none" xmlns="http://www.w3.org/2000/svg">
<mask id="path-1-inside-1_63_314" fill="white">
<path d="M185.391 100.529H190.021V162.698H185.391V183.502C185.391 201.104 172.318 215.968 154.86 218.216L131.82 221.181V227.514H125.207V230.159H121.238V235.45H115.947V230.159H111.979V227.514H105.365V221.146L83.56 218.283C66.141 215.996 53.1167 201.149 53.1167 183.581V162.698H48.4868V100.529H53.1167V82.0106H185.391V100.529Z"/>
</mask>
<path d="M185.391 100.529H190.021V162.698H185.391V183.502C185.391 201.104 172.318 215.968 154.86 218.216L131.82 221.181V227.514H125.207V230.159H121.238V235.45H115.947V230.159H111.979V227.514H105.365V221.146L83.56 218.283C66.141 215.996 53.1167 201.149 53.1167 183.581V162.698H48.4868V100.529H53.1167V82.0106H185.391V100.529Z" fill="#EBEBEB"/>
<path d="M185.391 100.529H184.391V101.529H185.391V100.529ZM190.021 100.529H191.021V99.5291H190.021V100.529ZM190.021 162.698V163.698H191.021V162.698H190.021ZM185.391 162.698V161.698H184.391V162.698H185.391ZM154.86 218.216L154.987 219.207H154.987L154.86 218.216ZM131.82 221.181L131.692 220.189L130.82 220.301V221.181H131.82ZM131.82 227.514V228.514H132.82V227.514H131.82ZM125.207 227.514V226.514H124.207V227.514H125.207ZM125.207 230.159V231.159H126.207V230.159H125.207ZM121.238 230.159V229.159H120.238V230.159H121.238ZM121.238 235.45V236.45H122.238V235.45H121.238ZM115.947 235.45H114.947V236.45H115.947V235.45ZM115.947 230.159H116.947V229.159H115.947V230.159ZM111.979 230.159H110.979V231.159H111.979V230.159ZM111.979 227.514H112.979V226.514H111.979V227.514ZM105.365 227.514H104.365V228.514H105.365V227.514ZM105.365 221.146H106.365V220.269L105.495 220.155L105.365 221.146ZM83.56 218.283L83.6902 217.292L83.56 218.283ZM53.1167 162.698H54.1167V161.698H53.1167V162.698ZM48.4868 162.698H47.4868V163.698H48.4868V162.698ZM48.4868 100.529V99.5291H47.4868V100.529H48.4868ZM53.1167 100.529V101.529H54.1167V100.529H53.1167ZM53.1167 82.0106V81.0106H52.1167V82.0106H53.1167ZM185.391 82.0106H186.391V81.0106H185.391V82.0106ZM185.391 100.529V101.529H190.021V100.529V99.5291H185.391V100.529ZM190.021 100.529H189.021V162.698H190.021H191.021V100.529H190.021ZM190.021 162.698V161.698H185.391V162.698V163.698H190.021V162.698ZM185.391 162.698H184.391V183.502H185.391H186.391V162.698H185.391ZM185.391 183.502H184.391C184.391 200.601 171.692 215.041 154.732 217.224L154.86 218.216L154.987 219.207C172.945 216.896 186.391 201.607 186.391 183.502H185.391ZM154.86 218.216L154.732 217.224L131.692 220.189L131.82 221.181L131.947 222.172L154.987 219.207L154.86 218.216ZM131.82 221.181H130.82V227.514H131.82H132.82V221.181H131.82ZM131.82 227.514V226.514H125.207V227.514V228.514H131.82V227.514ZM125.207 227.514H124.207V230.159H125.207H126.207V227.514H125.207ZM125.207 230.159V229.159H121.238V230.159V231.159H125.207V230.159ZM121.238 230.159H120.238V235.45H121.238H122.238V230.159H121.238ZM121.238 235.45V234.45H115.947V235.45V236.45H121.238V235.45ZM115.947 235.45H116.947V230.159H115.947H114.947V235.45H115.947ZM115.947 230.159V229.159H111.979V230.159V231.159H115.947V230.159ZM111.979 230.159H112.979V227.514H111.979H110.979V230.159H111.979ZM111.979 227.514V226.514H105.365V227.514V228.514H111.979V227.514ZM105.365 227.514H106.365V221.146H105.365H104.365V227.514H105.365ZM105.365 221.146L105.495 220.155L83.6902 217.292L83.56 218.283L83.4298 219.275L105.235 222.138L105.365 221.146ZM83.56 218.283L83.6902 217.292C66.7689 215.07 54.1167 200.647 54.1167 183.581H53.1167H52.1167C52.1167 201.651 65.5132 216.922 83.4298 219.275L83.56 218.283ZM53.1167 183.581H54.1167V162.698H53.1167H52.1167V183.581H53.1167ZM53.1167 162.698V161.698H48.4868V162.698V163.698H53.1167V162.698ZM48.4868 162.698H49.4868V100.529H48.4868H47.4868V162.698H48.4868ZM48.4868 100.529V101.529H53.1167V100.529V99.5291H48.4868V100.529ZM53.1167 100.529H54.1167V82.0106H53.1167H52.1167V100.529H53.1167ZM53.1167 82.0106V83.0106H185.391V82.0106V81.0106H53.1167V82.0106ZM185.391 82.0106H184.391V100.529H185.391H186.391V82.0106H185.391Z" fill="#1F1F1F" mask="url(#path-1-inside-1_63_314)"/>
<path d="M61.7143 82.0106H176.794L176.227 177.427C176.123 194.835 163.242 209.521 145.996 211.893L124.451 214.855C120.134 215.449 115.748 215.333 111.468 214.512L90.122 210.419C73.6344 207.257 61.7143 192.833 61.7143 176.045V82.0106Z" fill="#1F1F1F"/>
<path d="M175.786 116.223L175.294 178.419C175.157 195.74 162.021 210.189 144.791 211.97L122.75 214.248C119.563 214.578 116.348 214.513 113.176 214.056L91.8627 210.984C75.1322 208.572 62.7143 194.235 62.7143 177.331V116.223H175.786Z" fill="#1F1F1F" stroke="#EBEBEB" stroke-width="2"/>
<rect x="99.2513" y="26.955" width="38.6825" height="17.5185" fill="#EBEBEB" stroke="#1F1F1F"/>
<rect x="103.22" y="4.46826" width="30.746" height="17.5185" fill="#EBEBEB" stroke="#1F1F1F"/>
<rect x="92.6376" y="22.9868" width="51.9101" height="2.96825" fill="#EBEBEB" stroke="#1F1F1F"/>
<rect x="99.2513" y="0.5" width="38.6825" height="2.96825" fill="#EBEBEB" stroke="#1F1F1F"/>
<path d="M118.593 42.0053C136.596 42.0053 152.937 49.1915 164.798 57.225C170.724 61.2391 175.506 65.4476 178.795 69.0404C180.44 70.8383 181.698 72.4656 182.536 73.8227C183.403 75.2252 183.73 76.1948 183.73 76.7191C183.73 77.0899 183.548 77.5056 182.839 77.9691C182.108 78.4472 180.947 78.879 179.316 79.2406C176.07 79.9606 171.31 80.3328 165.331 80.5004C153.376 80.8356 136.906 80.349 118.593 80.349C100.279 80.349 83.8091 80.8356 71.8544 80.5004C65.876 80.3328 61.1155 79.9606 57.8691 79.2406C56.2385 78.879 55.0769 78.4473 54.3456 77.9691C53.6368 77.5056 53.455 77.0898 53.455 76.7191C53.4552 76.1948 53.7828 75.2252 54.6494 73.8227C55.4878 72.4656 56.745 70.8383 58.3906 69.0404C61.6791 65.4477 66.4606 61.239 72.3867 57.225C84.2472 49.1915 100.589 42.0053 118.593 42.0053Z" fill="#EBEBEB" stroke="#1F1F1F" stroke-width="2"/>
<path d="M126.852 83.0106V167.989C126.852 172.551 123.154 176.249 118.592 176.249C114.031 176.249 110.333 172.55 110.333 167.989V83.0106H126.852Z" fill="#EBEBEB" stroke="#1F1F1F" stroke-width="2"/>
<mask id="path-11-inside-2_63_314" fill="white">
<path d="M57.7461 250H26V242.064H36.582V80.1058C36.582 75.059 40.3209 70.8874 45.1797 70.2054V70.1058H192.667V70.1351C197.844 70.5144 201.926 74.8323 201.926 80.1058V239.418H211.186V247.355H179.439V239.418H190.021V199.736H48.4863V242.064H57.7461V250ZM48.4863 187.83H190.021V82.0101H48.4863V187.83Z"/>
</mask>
<path d="M57.7461 250H26V242.064H36.582V80.1058C36.582 75.059 40.3209 70.8874 45.1797 70.2054V70.1058H192.667V70.1351C197.844 70.5144 201.926 74.8323 201.926 80.1058V239.418H211.186V247.355H179.439V239.418H190.021V199.736H48.4863V242.064H57.7461V250ZM48.4863 187.83H190.021V82.0101H48.4863V187.83Z" fill="#EBEBEB"/>
<path d="M57.7461 250V252H59.7461V250H57.7461ZM26 250H24V252H26V250ZM26 242.064V240.064H24V242.064H26ZM36.582 242.064V244.064H38.582V242.064H36.582ZM45.1797 70.2054L45.4577 72.186L47.1797 71.9443V70.2054H45.1797ZM45.1797 70.1058V68.1058H43.1797V70.1058H45.1797ZM192.667 70.1058H194.667V68.1058H192.667V70.1058ZM192.667 70.1351H190.667V71.994L192.521 72.1298L192.667 70.1351ZM201.926 239.418H199.926V241.418H201.926V239.418ZM211.186 239.418H213.186V237.418H211.186V239.418ZM211.186 247.355V249.355H213.186V247.355H211.186ZM179.439 247.355H177.439V249.355H179.439V247.355ZM179.439 239.418V237.418H177.439V239.418H179.439ZM190.021 239.418V241.418H192.021V239.418H190.021ZM190.021 199.736H192.021V197.736H190.021V199.736ZM48.4863 199.736V197.736H46.4863V199.736H48.4863ZM48.4863 242.064H46.4863V244.064H48.4863V242.064ZM57.7461 242.064H59.7461V240.064H57.7461V242.064ZM48.4863 187.83H46.4863V189.83H48.4863V187.83ZM190.021 187.83V189.83H192.021V187.83H190.021ZM190.021 82.0101H192.021V80.0101H190.021V82.0101ZM48.4863 82.0101V80.0101H46.4863V82.0101H48.4863ZM57.7461 250V248H26V250V252H57.7461V250ZM26 250H28V242.064H26H24V250H26ZM26 242.064V244.064H36.582V242.064V240.064H26V242.064ZM36.582 242.064H38.582V80.1058H36.582H34.582V242.064H36.582ZM36.582 80.1058H38.582C38.582 76.0707 41.572 72.7314 45.4577 72.186L45.1797 70.2054L44.9017 68.2249C39.0698 69.0434 34.582 74.0474 34.582 80.1058H36.582ZM45.1797 70.2054H47.1797V70.1058H45.1797H43.1797V70.2054H45.1797ZM45.1797 70.1058V72.1058H192.667V70.1058V68.1058H45.1797V70.1058ZM192.667 70.1058H190.667V70.1351H192.667H194.667V70.1058H192.667ZM192.667 70.1351L192.521 72.1298C196.661 72.4331 199.926 75.8885 199.926 80.1058H201.926H203.926C203.926 73.7761 199.027 68.5957 192.813 68.1405L192.667 70.1351ZM201.926 80.1058H199.926V239.418H201.926H203.926V80.1058H201.926ZM201.926 239.418V241.418H211.186V239.418V237.418H201.926V239.418ZM211.186 239.418H209.186V247.355H211.186H213.186V239.418H211.186ZM211.186 247.355V245.355H179.439V247.355V249.355H211.186V247.355ZM179.439 247.355H181.439V239.418H179.439H177.439V247.355H179.439ZM179.439 239.418V241.418H190.021V239.418V237.418H179.439V239.418ZM190.021 239.418H192.021V199.736H190.021H188.021V239.418H190.021ZM190.021 199.736V197.736H48.4863V199.736V201.736H190.021V199.736ZM48.4863 199.736H46.4863V242.064H48.4863H50.4863V199.736H48.4863ZM48.4863 242.064V244.064H57.7461V242.064V240.064H48.4863V242.064ZM57.7461 242.064H55.7461V250H57.7461H59.7461V242.064H57.7461ZM48.4863 187.83V189.83H190.021V187.83V185.83H48.4863V187.83ZM190.021 187.83H192.021V82.0101H190.021H188.021V187.83H190.021ZM190.021 82.0101V80.0101H48.4863V82.0101V84.0101H190.021V82.0101ZM48.4863 82.0101H46.4863V187.83H48.4863H50.4863V82.0101H48.4863Z" fill="#1F1F1F" mask="url(#path-11-inside-2_63_314)"/>
<rect x="163.801" y="21.2211" width="25.9609" height="37.423" transform="rotate(32.3405 163.801 21.2211)" fill="#EBEBEB" stroke="#1F1F1F" stroke-width="2"/>
<rect x="163.828" y="14.6073" width="34.0439" height="5.32881" transform="rotate(32.3405 163.828 14.6073)" fill="#EBEBEB" stroke="#1F1F1F" stroke-width="2"/>
<rect x="70.3812" y="83.4989" width="5.93651" height="51.2169" transform="rotate(-11.5372 70.3812 83.4989)" fill="#EBEBEB" stroke="#1F1F1F" stroke-width="2"/>
<mask id="path-16-inside-3_63_314" fill="white">
<path d="M65.5932 31.0298C68.9555 31.8601 71.7129 34.5513 72.4516 38.1704C73.1901 41.789 71.7082 45.3446 68.9409 47.4262L72.9643 67.1362L65.1879 68.7231L61.1645 49.0132C57.8025 48.1826 55.0458 45.4923 54.3071 41.8735C53.5685 38.2548 55.0494 34.6984 57.8168 32.6167L54.9936 18.7827L62.77 17.1958L65.5932 31.0298Z"/>
</mask>
<path d="M65.5932 31.0298C68.9555 31.8601 71.7129 34.5513 72.4516 38.1704C73.1901 41.789 71.7082 45.3446 68.9409 47.4262L72.9643 67.1362L65.1879 68.7231L61.1645 49.0132C57.8025 48.1826 55.0458 45.4923 54.3071 41.8735C53.5685 38.2548 55.0494 34.6984 57.8168 32.6167L54.9936 18.7827L62.77 17.1958L65.5932 31.0298Z" fill="#EBEBEB"/>
<path d="M65.5932 31.0298L63.6336 31.4297L63.8864 32.6683L65.1137 32.9714L65.5932 31.0298ZM72.4516 38.1704L74.4112 37.7705L74.4112 37.7704L72.4516 38.1704ZM68.9409 47.4262L67.7386 45.8279L66.7285 46.5878L66.9813 47.8263L68.9409 47.4262ZM72.9643 67.1362L73.3642 69.0958L75.3239 68.6959L74.9239 66.7362L72.9643 67.1362ZM65.1879 68.7231L63.2284 69.1231L63.6283 71.0826L65.5878 70.6827L65.1879 68.7231ZM61.1645 49.0132L63.1241 48.6131L62.8713 47.3747L61.6442 47.0715L61.1645 49.0132ZM54.3071 41.8735L52.3475 42.2735L52.3475 42.2735L54.3071 41.8735ZM57.8168 32.6167L59.0191 34.215L60.0292 33.4552L59.7765 32.2168L57.8168 32.6167ZM54.9936 18.7827L54.5937 16.8231L52.6341 17.223L53.034 19.1826L54.9936 18.7827ZM62.77 17.1958L64.7296 16.7959L64.3297 14.8363L62.3701 15.2362L62.77 17.1958ZM65.5932 31.0298L65.1137 32.9714C67.755 33.6237 69.9135 35.7363 70.492 38.5704L72.4516 38.1704L74.4112 37.7704C73.5122 33.3664 70.156 30.0965 66.0727 29.0881L65.5932 31.0298ZM72.4516 38.1704L70.492 38.5703C71.0703 41.4039 69.9127 44.1926 67.7386 45.8279L68.9409 47.4262L70.1431 49.0245C73.5038 46.4966 75.3099 42.1741 74.4112 37.7705L72.4516 38.1704ZM68.9409 47.4262L66.9813 47.8263L71.0047 67.5362L72.9643 67.1362L74.9239 66.7362L70.9005 47.0262L68.9409 47.4262ZM72.9643 67.1362L72.5644 65.1766L64.788 66.7635L65.1879 68.7231L65.5878 70.6827L73.3642 69.0958L72.9643 67.1362ZM65.1879 68.7231L67.1475 68.3231L63.1241 48.6131L61.1645 49.0132L59.2049 49.4132L63.2284 69.1231L65.1879 68.7231ZM61.1645 49.0132L61.6442 47.0715C59.0029 46.419 56.8451 44.3073 56.2667 41.4735L54.3071 41.8735L52.3475 42.2735C53.2464 46.6774 56.6021 49.9462 60.6849 50.9548L61.1645 49.0132ZM54.3071 41.8735L56.2667 41.4735C55.6882 38.6393 56.8454 35.8501 59.0191 34.215L57.8168 32.6167L56.6146 31.0184C53.2534 33.5467 51.4487 37.8702 52.3475 42.2735L54.3071 41.8735ZM57.8168 32.6167L59.7765 32.2168L56.9532 18.3828L54.9936 18.7827L53.034 19.1826L55.8572 33.0166L57.8168 32.6167ZM54.9936 18.7827L55.3935 20.7423L63.1699 19.1554L62.77 17.1958L62.3701 15.2362L54.5937 16.8231L54.9936 18.7827ZM62.77 17.1958L60.8104 17.5957L63.6336 31.4297L65.5932 31.0298L67.5528 30.6298L64.7296 16.7959L62.77 17.1958Z" fill="#1F1F1F" mask="url(#path-16-inside-3_63_314)"/>
<mask id="path-18-inside-4_63_314" fill="white">
<path d="M178.119 162.294C182.445 163.143 186.489 164.799 190.095 167.102L200.506 154.468L211.035 163.468L200.114 176.723C202.088 179.546 203.67 182.673 204.78 186.021L220.702 183.161L223.09 196.948L206.543 199.919C206.336 203.096 205.725 206.161 204.758 209.058L219.296 217.607L212.423 229.733L197.867 221.174C195.135 224.339 191.866 227.01 188.202 229.038L193.982 245.213L181.064 250L175.054 233.181C173.856 233.307 172.642 233.372 171.412 233.372C169.499 233.372 167.623 233.214 165.793 232.915L159.689 250L146.773 245.213L153.271 228.25C150.033 226.263 147.134 223.762 144.684 220.856L129.59 229.733L122.716 217.607L137.935 208.655C136.979 205.675 136.394 202.523 136.24 199.257L118.593 196.393L120.979 182.604L138.157 185.688C139.469 181.858 141.401 178.324 143.83 175.211L132.678 161.675L143.207 152.675L154.309 166.151C157.406 164.395 160.789 163.1 164.37 162.36V145.503H178.119V162.294ZM170.842 175.925C158.788 175.925 149.015 185.698 149.015 197.752C149.016 209.805 158.788 219.577 170.842 219.577C182.895 219.577 192.667 209.805 192.667 197.752C192.667 185.698 182.895 175.926 170.842 175.925Z"/>
</mask>
<path d="M178.119 162.294C182.445 163.143 186.489 164.799 190.095 167.102L200.506 154.468L211.035 163.468L200.114 176.723C202.088 179.546 203.67 182.673 204.78 186.021L220.702 183.161L223.09 196.948L206.543 199.919C206.336 203.096 205.725 206.161 204.758 209.058L219.296 217.607L212.423 229.733L197.867 221.174C195.135 224.339 191.866 227.01 188.202 229.038L193.982 245.213L181.064 250L175.054 233.181C173.856 233.307 172.642 233.372 171.412 233.372C169.499 233.372 167.623 233.214 165.793 232.915L159.689 250L146.773 245.213L153.271 228.25C150.033 226.263 147.134 223.762 144.684 220.856L129.59 229.733L122.716 217.607L137.935 208.655C136.979 205.675 136.394 202.523 136.24 199.257L118.593 196.393L120.979 182.604L138.157 185.688C139.469 181.858 141.401 178.324 143.83 175.211L132.678 161.675L143.207 152.675L154.309 166.151C157.406 164.395 160.789 163.1 164.37 162.36V145.503H178.119V162.294ZM170.842 175.925C158.788 175.925 149.015 185.698 149.015 197.752C149.016 209.805 158.788 219.577 170.842 219.577C182.895 219.577 192.667 209.805 192.667 197.752C192.667 185.698 182.895 175.926 170.842 175.925Z" fill="#EBEBEB"/>
<path d="M178.119 162.294H176.119V163.939L177.733 164.256L178.119 162.294ZM190.095 167.102L189.018 168.788L190.511 169.742L191.638 168.374L190.095 167.102ZM200.506 154.468L201.805 152.948L200.257 151.625L198.962 153.197L200.506 154.468ZM211.035 163.468L212.579 164.74L213.827 163.224L212.334 161.948L211.035 163.468ZM200.114 176.723L198.571 175.452L197.604 176.624L198.475 177.869L200.114 176.723ZM204.78 186.021L202.882 186.651L203.428 188.296L205.134 187.99L204.78 186.021ZM220.702 183.161L222.673 182.82L222.329 180.836L220.348 181.192L220.702 183.161ZM223.09 196.948L223.443 198.916L225.4 198.565L225.06 196.607L223.09 196.948ZM206.543 199.919L206.189 197.95L204.649 198.227L204.547 199.789L206.543 199.919ZM204.758 209.058L202.861 208.425L202.348 209.961L203.744 210.782L204.758 209.058ZM219.296 217.607L221.036 218.593L222.006 216.881L220.309 215.883L219.296 217.607ZM212.423 229.733L211.409 231.457L213.161 232.487L214.163 230.719L212.423 229.733ZM197.867 221.174L198.881 219.45L197.443 218.604L196.353 219.867L197.867 221.174ZM188.202 229.038L187.233 227.288L185.747 228.111L186.319 229.711L188.202 229.038ZM193.982 245.213L194.677 247.088L196.531 246.401L195.866 244.54L193.982 245.213ZM181.064 250L179.181 250.673L179.862 252.578L181.759 251.875L181.064 250ZM175.054 233.181L176.937 232.508L176.408 231.029L174.845 231.192L175.054 233.181ZM171.412 233.372L171.412 235.372H171.412V233.372ZM165.793 232.915L166.115 230.941L164.47 230.672L163.909 232.242L165.793 232.915ZM159.689 250L158.994 251.875L160.892 252.578L161.573 250.673L159.689 250ZM146.773 245.213L144.906 244.497L144.182 246.385L146.078 247.088L146.773 245.213ZM153.271 228.25L155.139 228.965L155.733 227.414L154.317 226.545L153.271 228.25ZM144.684 220.856L146.214 219.567L145.126 218.276L143.671 219.132L144.684 220.856ZM129.59 229.733L127.85 230.719L128.852 232.487L130.604 231.457L129.59 229.733ZM122.716 217.607L121.702 215.883L120.005 216.881L120.976 218.593L122.716 217.607ZM137.935 208.655L138.949 210.379L140.329 209.568L139.84 208.044L137.935 208.655ZM136.24 199.257L138.238 199.162L138.161 197.542L136.56 197.282L136.24 199.257ZM118.593 196.393L116.622 196.052L116.277 198.044L118.272 198.367L118.593 196.393ZM120.979 182.604L121.333 180.636L119.352 180.28L119.009 182.263L120.979 182.604ZM138.157 185.688L137.804 187.657L139.493 187.96L140.049 186.336L138.157 185.688ZM143.83 175.211L145.407 176.441L146.393 175.177L145.373 173.939L143.83 175.211ZM132.678 161.675L131.378 160.155L129.885 161.431L131.134 162.947L132.678 161.675ZM143.207 152.675L144.75 151.404L143.455 149.832L141.907 151.155L143.207 152.675ZM154.309 166.151L152.766 167.423L153.834 168.72L155.296 167.891L154.309 166.151ZM164.37 162.36L164.775 164.319L166.37 163.989V162.36H164.37ZM164.37 145.503V143.503H162.37V145.503H164.37ZM178.119 145.503H180.119V143.503H178.119V145.503ZM170.842 175.925L170.842 173.925H170.842V175.925ZM149.015 197.752H147.015V197.752L149.015 197.752ZM170.842 219.577V221.577H170.842L170.842 219.577ZM192.667 197.752L194.667 197.752V197.752H192.667ZM178.119 162.294L177.733 164.256C181.808 165.056 185.618 166.616 189.018 168.788L190.095 167.102L191.171 165.417C187.36 162.982 183.082 161.23 178.504 160.331L178.119 162.294ZM190.095 167.102L191.638 168.374L202.049 155.74L200.506 154.468L198.962 153.197L188.551 165.83L190.095 167.102ZM200.506 154.468L199.206 155.989L209.735 164.989L211.035 163.468L212.334 161.948L201.805 152.948L200.506 154.468ZM211.035 163.468L209.491 162.197L198.571 175.452L200.114 176.723L201.658 177.995L212.579 164.74L211.035 163.468ZM200.114 176.723L198.475 177.869C200.339 180.535 201.833 183.488 202.882 186.651L204.78 186.021L206.678 185.392C205.506 181.858 203.837 178.557 201.753 175.577L200.114 176.723ZM204.78 186.021L205.134 187.99L221.056 185.129L220.702 183.161L220.348 181.192L204.426 184.053L204.78 186.021ZM220.702 183.161L218.731 183.502L221.119 197.289L223.09 196.948L225.06 196.607L222.673 182.82L220.702 183.161ZM223.09 196.948L222.736 194.979L206.189 197.95L206.543 199.919L206.896 201.887L223.443 198.916L223.09 196.948ZM206.543 199.919L204.547 199.789C204.351 202.794 203.774 205.69 202.861 208.425L204.758 209.058L206.655 209.692C207.676 206.632 208.32 203.398 208.539 200.049L206.543 199.919ZM204.758 209.058L203.744 210.782L218.282 219.331L219.296 217.607L220.309 215.883L205.771 207.334L204.758 209.058ZM219.296 217.607L217.556 216.621L210.683 228.747L212.423 229.733L214.163 230.719L221.036 218.593L219.296 217.607ZM212.423 229.733L213.436 228.009L198.881 219.45L197.867 221.174L196.853 222.898L211.409 231.457L212.423 229.733ZM197.867 221.174L196.353 219.867C193.773 222.856 190.687 225.376 187.233 227.288L188.202 229.038L189.171 230.788C193.044 228.643 196.497 225.822 199.381 222.48L197.867 221.174ZM188.202 229.038L186.319 229.711L192.099 245.886L193.982 245.213L195.866 244.54L190.085 228.365L188.202 229.038ZM193.982 245.213L193.287 243.337L180.369 248.124L181.064 250L181.759 251.875L194.677 247.088L193.982 245.213ZM181.064 250L182.948 249.327L176.937 232.508L175.054 233.181L173.17 233.854L179.181 250.673L181.064 250ZM175.054 233.181L174.845 231.192C173.716 231.31 172.571 231.372 171.412 231.372V233.372V235.372C172.712 235.372 173.997 235.303 175.262 235.17L175.054 233.181ZM171.412 233.372L171.412 231.372C169.61 231.372 167.841 231.223 166.115 230.941L165.793 232.915L165.47 234.889C167.404 235.204 169.389 235.372 171.412 235.372L171.412 233.372ZM165.793 232.915L163.909 232.242L157.806 249.327L159.689 250L161.573 250.673L167.676 233.588L165.793 232.915ZM159.689 250L160.384 248.124L147.468 243.337L146.773 245.213L146.078 247.088L158.994 251.875L159.689 250ZM146.773 245.213L148.641 245.928L155.139 228.965L153.271 228.25L151.404 227.534L144.906 244.497L146.773 245.213ZM153.271 228.25L154.317 226.545C151.263 224.671 148.527 222.311 146.214 219.567L144.684 220.856L143.155 222.145C145.741 225.213 148.803 227.855 152.225 229.954L153.271 228.25ZM144.684 220.856L143.671 219.132L128.576 228.009L129.59 229.733L130.604 231.457L145.698 222.58L144.684 220.856ZM129.59 229.733L131.33 228.747L124.456 216.621L122.716 217.607L120.976 218.593L127.85 230.719L129.59 229.733ZM122.716 217.607L123.73 219.331L138.949 210.379L137.935 208.655L136.921 206.931L121.702 215.883L122.716 217.607ZM137.935 208.655L139.84 208.044C138.937 205.229 138.383 202.251 138.238 199.162L136.24 199.257L134.242 199.351C134.405 202.796 135.022 206.121 136.031 209.266L137.935 208.655ZM136.24 199.257L136.56 197.282L118.913 194.419L118.593 196.393L118.272 198.367L135.92 201.231L136.24 199.257ZM118.593 196.393L120.563 196.734L122.95 182.945L120.979 182.604L119.009 182.263L116.622 196.052L118.593 196.393ZM120.979 182.604L120.626 184.573L137.804 187.657L138.157 185.688L138.51 183.72L121.333 180.636L120.979 182.604ZM138.157 185.688L140.049 186.336C141.288 182.719 143.113 179.381 145.407 176.441L143.83 175.211L142.253 173.98C139.689 177.267 137.65 180.997 136.265 185.04L138.157 185.688ZM143.83 175.211L145.373 173.939L134.221 160.404L132.678 161.675L131.134 162.947L142.286 176.482L143.83 175.211ZM132.678 161.675L133.977 163.196L144.506 154.196L143.207 152.675L141.907 151.155L131.378 160.155L132.678 161.675ZM143.207 152.675L141.663 153.947L152.766 167.423L154.309 166.151L155.853 164.879L144.75 151.404L143.207 152.675ZM154.309 166.151L155.296 167.891C158.215 166.235 161.403 165.016 164.775 164.319L164.37 162.36L163.965 160.401C160.175 161.185 156.596 162.555 153.323 164.411L154.309 166.151ZM164.37 162.36H166.37V145.503H164.37H162.37V162.36H164.37ZM164.37 145.503V147.503H178.119V145.503V143.503H164.37V145.503ZM178.119 145.503H176.119V162.294H178.119H180.119V145.503H178.119ZM170.842 175.925V173.925C157.683 173.925 147.015 184.593 147.015 197.752H149.015H151.015C151.015 186.802 159.892 177.925 170.842 177.925V175.925ZM149.015 197.752L147.015 197.752C147.016 210.91 157.683 221.577 170.842 221.577V219.577V217.577C159.892 217.577 151.016 208.701 151.015 197.752L149.015 197.752ZM170.842 219.577L170.842 221.577C184 221.577 194.667 210.91 194.667 197.752L192.667 197.752L190.667 197.752C190.667 208.701 181.791 217.577 170.842 217.577L170.842 219.577ZM192.667 197.752H194.667C194.667 184.593 184 173.926 170.842 173.925L170.842 175.925L170.842 177.925C181.791 177.926 190.667 186.802 190.667 197.752H192.667Z" fill="#1F1F1F" mask="url(#path-18-inside-4_63_314)"/>
</svg>
