<svg width="251" height="250" viewBox="0 0 251 250" fill="none" xmlns="http://www.w3.org/2000/svg">
<line x1="250" y1="230" x2="250" y2="242" stroke="#EBEBEB" stroke-width="2"/>
<line x1="172" y1="230" x2="172" y2="243" stroke="#EBEBEB" stroke-width="2"/>
<path d="M211 233C221.726 233 231.41 233.837 238.389 235.179C241.886 235.851 244.653 236.642 246.521 237.491C247.458 237.917 248.115 238.334 248.522 238.717C248.93 239.1 249 239.361 249 239.5C249 239.639 248.93 239.9 248.522 240.283C248.115 240.666 247.458 241.083 246.521 241.509C244.653 242.358 241.886 243.149 238.389 243.821C231.41 245.163 221.726 246 211 246C200.274 246 190.59 245.163 183.611 243.821C180.114 243.149 177.347 242.358 175.479 241.509C174.542 241.083 173.885 240.666 173.478 240.283C173.07 239.9 173 239.639 173 239.5C173 239.361 173.07 239.1 173.478 238.717C173.885 238.334 174.542 237.917 175.479 237.491C177.347 236.642 180.114 235.851 183.611 235.179C190.59 233.837 200.274 233 211 233Z" fill="#1F1F1F" stroke="#EBEBEB" stroke-width="2"/>
<path d="M211 228C221.726 228 231.41 228.837 238.389 230.179C241.886 230.851 244.653 231.642 246.521 232.491C247.458 232.917 248.115 233.334 248.522 233.717C248.93 234.1 249 234.361 249 234.5C249 234.639 248.93 234.9 248.522 235.283C248.115 235.666 247.458 236.083 246.521 236.509C244.653 237.358 241.886 238.149 238.389 238.821C231.41 240.163 221.726 241 211 241C200.274 241 190.59 240.163 183.611 238.821C180.114 238.149 177.347 237.358 175.479 236.509C174.542 236.083 173.885 235.666 173.478 235.283C173.07 234.9 173 234.639 173 234.5C173 234.361 173.07 234.1 173.478 233.717C173.885 233.334 174.542 232.917 175.479 232.491C177.347 231.642 180.114 230.851 183.611 230.179C190.59 228.837 200.274 228 211 228Z" fill="#1F1F1F" stroke="#EBEBEB" stroke-width="2"/>
<path d="M211 223C221.726 223 231.41 223.837 238.389 225.179C241.886 225.851 244.653 226.642 246.521 227.491C247.458 227.917 248.115 228.334 248.522 228.717C248.93 229.1 249 229.361 249 229.5C249 229.639 248.93 229.9 248.522 230.283C248.115 230.666 247.458 231.083 246.521 231.509C244.653 232.358 241.886 233.149 238.389 233.821C231.41 235.163 221.726 236 211 236C200.274 236 190.59 235.163 183.611 233.821C180.114 233.149 177.347 232.358 175.479 231.509C174.542 231.083 173.885 230.666 173.478 230.283C173.07 229.9 173 229.639 173 229.5C173 229.361 173.07 229.1 173.478 228.717C173.885 228.334 174.542 227.917 175.479 227.491C177.347 226.642 180.114 225.851 183.611 225.179C190.59 223.837 200.274 223 211 223Z" fill="#1F1F1F" stroke="#EBEBEB" stroke-width="2"/>
<path d="M211 218C221.726 218 231.41 218.837 238.389 220.179C241.886 220.851 244.653 221.642 246.521 222.491C247.458 222.917 248.115 223.334 248.522 223.717C248.93 224.1 249 224.361 249 224.5C249 224.639 248.93 224.9 248.522 225.283C248.115 225.666 247.458 226.083 246.521 226.509C244.653 227.358 241.886 228.149 238.389 228.821C231.41 230.163 221.726 231 211 231C200.274 231 190.59 230.163 183.611 228.821C180.114 228.149 177.347 227.358 175.479 226.509C174.542 226.083 173.885 225.666 173.478 225.283C173.07 224.9 173 224.639 173 224.5C173 224.361 173.07 224.1 173.478 223.717C173.885 223.334 174.542 222.917 175.479 222.491C177.347 221.642 180.114 220.851 183.611 220.179C190.59 218.837 200.274 218 211 218Z" fill="#1F1F1F" stroke="#EBEBEB" stroke-width="2"/>
<path d="M211 213C221.726 213 231.41 213.837 238.389 215.179C241.886 215.851 244.653 216.642 246.521 217.491C247.458 217.917 248.115 218.334 248.522 218.717C248.93 219.1 249 219.361 249 219.5C249 219.639 248.93 219.9 248.522 220.283C248.115 220.666 247.458 221.083 246.521 221.509C244.653 222.358 241.886 223.149 238.389 223.821C231.41 225.163 221.726 226 211 226C200.274 226 190.59 225.163 183.611 223.821C180.114 223.149 177.347 222.358 175.479 221.509C174.542 221.083 173.885 220.666 173.478 220.283C173.07 219.9 173 219.639 173 219.5C173 219.361 173.07 219.1 173.478 218.717C173.885 218.334 174.542 217.917 175.479 217.491C177.347 216.642 180.114 215.851 183.611 215.179C190.59 213.837 200.274 213 211 213Z" fill="#1F1F1F" stroke="#EBEBEB" stroke-width="2"/>
<path d="M211 208C221.726 208 231.41 208.837 238.389 210.179C241.886 210.851 244.653 211.642 246.521 212.491C247.458 212.917 248.115 213.334 248.522 213.717C248.93 214.1 249 214.361 249 214.5C249 214.639 248.93 214.9 248.522 215.283C248.115 215.666 247.458 216.083 246.521 216.509C244.653 217.358 241.886 218.149 238.389 218.821C231.41 220.163 221.726 221 211 221C200.274 221 190.59 220.163 183.611 218.821C180.114 218.149 177.347 217.358 175.479 216.509C174.542 216.083 173.885 215.666 173.478 215.283C173.07 214.9 173 214.639 173 214.5C173 214.361 173.07 214.1 173.478 213.717C173.885 213.334 174.542 212.917 175.479 212.491C177.347 211.642 180.114 210.851 183.611 210.179C190.59 208.837 200.274 208 211 208Z" fill="#1F1F1F" stroke="#EBEBEB" stroke-width="2"/>
<line x1="250" y1="215" x2="250" y2="227" stroke="#EBEBEB" stroke-width="2"/>
<line x1="172" y1="215" x2="172" y2="228" stroke="#EBEBEB" stroke-width="2"/>
<path d="M129.089 105.77H108.167L118.627 59.5179L129.089 105.77Z" fill="#1F1F1F" stroke="#EBEBEB"/>
<path d="M98.6338 49.6531C100.563 48.9871 102.65 50.106 103.164 52.0809L116.909 104.938H86.2607C84.4369 104.938 82.9181 103.538 82.7715 101.72L79.333 59.0975C79.2046 57.5057 80.1702 56.0288 81.6797 55.5076L98.6338 49.6531ZM134.513 52.1541C135.031 50.1604 137.151 49.0436 139.089 49.743L155.001 55.4861C156.47 56.0164 157.41 57.4561 157.305 59.0145L154.422 101.675C154.298 103.512 152.771 104.938 150.93 104.938H120.789L134.513 52.1541Z" fill="#1F1F1F" stroke="#EBEBEB" stroke-width="3"/>
<circle cx="118.628" cy="24.2352" r="21.7352" fill="#1F1F1F" stroke="#EBEBEB"/>
<path d="M124.181 54.0458H113.075L118.627 63.663L124.181 54.0458Z" fill="#1F1F1F" stroke="#EBEBEB"/>
<path d="M211.076 161.053C226.945 161.053 239.759 173.655 239.759 189.137C239.759 204.62 226.946 217.222 211.076 217.222C195.208 217.222 182.395 204.62 182.395 189.137C182.395 173.655 195.208 161.054 211.076 161.053Z" fill="#1F1F1F" stroke="#EBEBEB" stroke-width="3"/>
<rect x="45.0153" y="160.63" width="54.1851" height="5.83531" transform="rotate(-60 45.0153 160.63)" fill="#1F1F1F"/>
<rect x="30.1404" y="222.473" width="23.1435" height="8.61153" fill="#1F1F1F"/>
<rect x="30.1404" y="235.39" width="23.1435" height="8.61153" fill="#1F1F1F"/>
<path d="M48.978 239.965C48.978 244.126 45.6044 247.5 41.4429 247.5C37.2814 247.5 33.9078 244.126 33.9078 239.965C33.9078 235.803 37.2814 236.466 41.4429 236.466C45.6044 236.466 48.978 235.803 48.978 239.965Z" fill="#1F1F1F"/>
<circle cx="41.4429" cy="199.867" r="26.911" fill="#1F1F1F"/>
<path d="M27.9875 191.256L41.4431 181.568V186.412L27.9875 196.1V191.256Z" fill="#EBEBEB"/>
<path d="M54.8984 191.256L41.4429 181.568V186.412L54.8984 196.1V191.256Z" fill="#EBEBEB"/>
<path d="M27.9875 210.094L41.4431 200.406V205.25L27.9875 214.938V210.094Z" fill="#EBEBEB"/>
<path d="M54.8984 210.094L41.4429 200.406V205.25L54.8984 214.938V210.094Z" fill="#EBEBEB"/>
<path d="M27.9875 200.406L41.4431 190.718V195.562L27.9875 205.25V200.406Z" fill="#EBEBEB"/>
<path d="M54.8984 200.406L41.4429 190.718V195.562L54.8984 205.25V200.406Z" fill="#EBEBEB"/>
<rect x="40.3666" y="157.886" width="2.15288" height="10.7644" fill="#1F1F1F"/>
<rect x="72.1216" y="200.944" width="2.15288" height="10.7644" transform="rotate(-90 72.1216 200.944)" fill="#1F1F1F"/>
<rect x="10.7644" y="171.249" width="2.15288" height="10.7644" transform="rotate(-45 10.7644 171.249)" fill="#1F1F1F"/>
<rect x="61.8954" y="222.38" width="2.15288" height="10.7644" transform="rotate(-45 61.8954 222.38)" fill="#1F1F1F"/>
<rect width="2.15288" height="10.7644" transform="matrix(-0.707107 -0.707107 -0.707107 0.707107 71.0293 171.249)" fill="#1F1F1F"/>
<rect width="2.15288" height="10.7644" transform="matrix(-0.707107 -0.707107 -0.707107 0.707107 19.8983 222.38)" fill="#1F1F1F"/>
<rect y="200.944" width="2.15288" height="10.7644" transform="rotate(-90 0 200.944)" fill="#1F1F1F"/>
<rect x="83" y="217" width="78" height="6" fill="#1F1F1F"/>
<rect x="186.313" y="162.714" width="54.1851" height="5.83531" transform="rotate(-120 186.313 162.714)" fill="#1F1F1F"/>
<path d="M210.432 207.273V174.545H212.528V207.273H210.432ZM217.489 184.364C217.335 183.068 216.713 182.062 215.622 181.347C214.531 180.631 213.193 180.273 211.608 180.273C210.449 180.273 209.435 180.46 208.565 180.835C207.705 181.21 207.031 181.726 206.545 182.382C206.068 183.038 205.83 183.784 205.83 184.619C205.83 185.318 205.996 185.919 206.328 186.422C206.669 186.916 207.104 187.33 207.632 187.662C208.161 187.986 208.714 188.254 209.294 188.467C209.874 188.672 210.406 188.838 210.892 188.966L213.551 189.682C214.233 189.861 214.991 190.108 215.827 190.423C216.67 190.739 217.476 191.169 218.243 191.714C219.018 192.251 219.658 192.942 220.161 193.786C220.663 194.629 220.915 195.665 220.915 196.892C220.915 198.307 220.544 199.585 219.803 200.727C219.07 201.869 217.996 202.777 216.581 203.45C215.175 204.124 213.466 204.46 211.455 204.46C209.58 204.46 207.956 204.158 206.584 203.553C205.22 202.947 204.146 202.104 203.362 201.021C202.587 199.939 202.148 198.682 202.045 197.25H205.318C205.403 198.239 205.736 199.057 206.315 199.705C206.903 200.344 207.645 200.821 208.54 201.136C209.443 201.443 210.415 201.597 211.455 201.597C212.665 201.597 213.751 201.401 214.714 201.009C215.678 200.608 216.44 200.054 217.003 199.347C217.565 198.631 217.847 197.795 217.847 196.841C217.847 195.972 217.604 195.264 217.118 194.719C216.632 194.173 215.993 193.73 215.2 193.389C214.408 193.048 213.551 192.75 212.631 192.494L209.409 191.574C207.364 190.986 205.744 190.146 204.551 189.055C203.358 187.964 202.761 186.537 202.761 184.773C202.761 183.307 203.158 182.028 203.95 180.938C204.751 179.838 205.825 178.986 207.172 178.381C208.527 177.767 210.04 177.46 211.71 177.46C213.398 177.46 214.898 177.763 216.21 178.368C217.523 178.964 218.563 179.783 219.33 180.822C220.105 181.862 220.514 183.043 220.557 184.364H217.489Z" fill="#EBEBEB"/>
</svg>
