<svg width="256" height="256" viewBox="0 0 256 256" fill="none" xmlns="http://www.w3.org/2000/svg">
<path d="M167.15 226.75H88.8496L128 198.615L167.15 226.75Z" fill="#1F1F1F" stroke="#1F1F1F"/>
<path d="M128 36.747C133.855 36.747 138.444 41.2989 138.444 46.7216C138.444 52.1444 133.855 56.6962 128 56.6962C122.144 56.696 117.556 52.1443 117.556 46.7216C117.556 41.2991 122.144 36.7473 128 36.747Z" stroke="#1F1F1F" stroke-width="5"/>
<path d="M208.54 64.4689C211.218 64.4691 213.23 66.539 213.23 68.8996C213.23 71.2601 211.218 73.33 208.54 73.3302C205.861 73.3302 203.848 71.2602 203.848 68.8996C203.848 66.5388 205.861 64.4689 208.54 64.4689Z" fill="#1F1F1F" stroke="#1F1F1F" stroke-width="5"/>
<rect x="124.5" y="57.5" width="7" height="160" fill="#1F1F1F" stroke="#1F1F1F"/>
<rect x="0.621134" y="-0.351684" width="7.3392" height="70.7278" transform="matrix(0.276062 -0.96114 0.966206 0.257771 138.375 53.6349)" fill="#1F1F1F" stroke="#1F1F1F"/>
<rect x="0.621134" y="-0.351684" width="7.3392" height="70.7278" transform="matrix(0.276062 -0.96114 0.966206 0.257771 46.8119 28.7372)" fill="#1F1F1F" stroke="#1F1F1F"/>
<mask id="path-7-inside-1_3_47" fill="white">
<path d="M251.685 127.115C251.685 136.306 247.14 145.12 239.048 151.618C230.957 158.117 219.982 161.768 208.539 161.768C197.096 161.768 186.122 158.117 178.03 151.618C169.939 145.12 165.393 136.306 165.393 127.115L208.539 127.115H251.685Z"/>
</mask>
<path d="M251.685 127.115C251.685 136.306 247.14 145.12 239.048 151.618C230.957 158.117 219.982 161.768 208.539 161.768C197.096 161.768 186.122 158.117 178.03 151.618C169.939 145.12 165.393 136.306 165.393 127.115L208.539 127.115H251.685Z" fill="#1F1F1F" stroke="#1F1F1F" stroke-width="2" mask="url(#path-7-inside-1_3_47)"/>
<path d="M47.4611 21.5C50.1394 21.5002 52.1515 23.5701 52.1515 25.9307C52.1514 28.2912 50.1393 30.3611 47.4611 30.3613C44.7826 30.3613 42.7698 28.2913 42.7697 25.9307C42.7697 23.5699 44.7825 21.5 47.4611 21.5Z" fill="#1F1F1F" stroke="#1F1F1F" stroke-width="5"/>
<path d="M248.746 134.932H168.334L208.539 69.8496L248.746 134.932Z" stroke="#1F1F1F"/>
<mask id="path-10-inside-2_3_47" fill="white">
<path d="M90.6067 84.1464C90.6067 93.3368 86.061 102.151 77.9696 108.649C69.8781 115.148 58.9037 118.799 47.4607 118.799C36.0176 118.799 25.0433 115.148 16.9518 108.649C8.86034 102.151 4.31461 93.3368 4.31461 84.1464L47.4607 84.1464H90.6067Z"/>
</mask>
<path d="M90.6067 84.1464C90.6067 93.3368 86.061 102.151 77.9696 108.649C69.8781 115.148 58.9037 118.799 47.4607 118.799C36.0176 118.799 25.0433 115.148 16.9518 108.649C8.86034 102.151 4.31461 93.3368 4.31461 84.1464L47.4607 84.1464H90.6067Z" fill="#1F1F1F" stroke="#1F1F1F" stroke-width="2" mask="url(#path-10-inside-2_3_47)"/>
<path d="M87.667 91.9627H7.25488L47.46 26.8807L87.667 91.9627Z" stroke="#1F1F1F"/>
</svg>
