<svg width="256" height="256" viewBox="0 0 256 256" fill="none" xmlns="http://www.w3.org/2000/svg">
<path d="M220.587 59.4775L114.265 97.8916L7.94238 59.4775L114.265 21.0625L220.587 59.4775Z" fill="#1F1F1F" stroke="#EBEBEB" stroke-width="2"/>
<path d="M185.686 71.2764L159.272 80.9649L62.7078 42.0382L89.1219 32.3497L185.686 71.2764Z" fill="#EBEBEB" stroke="#EBEBEB" stroke-width="2"/>
<path d="M221.945 195.259L114.681 234.568V99.6565L221.945 60.9016V195.259Z" fill="#1F1F1F" stroke="#EBEBEB" stroke-width="2"/>
<path d="M186.303 106.946L160.256 116.688V82.9232L186.303 73.3197V106.946Z" fill="#EBEBEB" stroke="#EBEBEB" stroke-width="2"/>
<path d="M6.00037 195.259L113.265 234.568V99.6565L6.00037 60.9016V195.259Z" fill="#1F1F1F" stroke="#EBEBEB" stroke-width="2"/>
<path d="M13.0116 142.444L51.913 156.87V86.3265L13.0116 72.1839V142.444Z" fill="#EBEBEB" stroke="#EBEBEB" stroke-width="2"/>
<path d="M46.4857 88.0161L14.3489 76.3969L14.349 79.7807L46.4857 91.699L46.4857 88.0161Z" fill="#1F1F1F"/>
<path d="M36.5549 91.1008L14.3489 83.1645L14.3489 86.5483L36.555 94.7837L36.5549 91.1008Z" fill="#1F1F1F"/>
<path d="M46.4857 101.551L14.3489 89.9321L14.349 93.3159L46.4857 105.234L46.4857 101.551Z" fill="#1F1F1F"/>
<path d="M41.2268 106.369L14.3493 96.6997L14.3494 100.084L41.2269 110.052L41.2268 106.369Z" fill="#1F1F1F"/>
<path d="M46.4857 115.087L14.3489 103.467L14.349 106.851L46.4857 118.769L46.4857 115.087Z" fill="#1F1F1F"/>
<path d="M249.106 127.081L241.819 181.995C241.18 186.811 238.671 191.183 234.836 194.166L202.285 219.474C201.028 220.451 199.27 220.458 198.007 219.489L165.066 194.228C161.131 191.21 158.572 186.739 157.964 181.817L151.197 127.085L200.157 111.805L249.106 127.081Z" fill="#1F1F1F" stroke="#EBEBEB" stroke-width="3"/>
<rect width="29.9514" height="6.8227" transform="matrix(0.777103 0.629373 -0.656089 0.754684 173.082 156.709)" fill="#EBEBEB"/>
<rect width="56.7807" height="6.86478" transform="matrix(-0.656089 0.754684 -0.777103 -0.629373 233.514 141.626)" fill="#EBEBEB"/>
</svg>
