<svg width="250" height="250" viewBox="0 0 250 250" fill="none" xmlns="http://www.w3.org/2000/svg">
<rect x="187.466" y="172.688" width="21.4359" height="9.68376" rx="3.5" fill="#EBEBEB" stroke="#1F1F1F"/>
<rect x="182.124" y="178.03" width="32.1197" height="33.188" rx="3.5" fill="#EBEBEB" stroke="#1F1F1F"/>
<rect x="186.397" y="168.415" width="23.5727" height="5.41026" fill="#EBEBEB" stroke="#1F1F1F"/>
<rect x="199.218" y="194.124" width="4.34188" height="38.5299" transform="rotate(-90 199.218 194.124)" fill="#EBEBEB" stroke="#1F1F1F"/>
<rect x="12.8206" y="211.718" width="217.949" height="25.641" fill="#EBEBEB"/>
<circle cx="12.8205" cy="224.538" r="12.3205" fill="#1F1F1F" stroke="#EBEBEB"/>
<circle cx="64.1026" cy="224.538" r="12.3205" fill="#1F1F1F" stroke="#EBEBEB"/>
<circle cx="38.4615" cy="224.538" r="12.3205" fill="#1F1F1F" stroke="#EBEBEB"/>
<circle cx="166.667" cy="224.538" r="12.3205" fill="#1F1F1F" stroke="#EBEBEB"/>
<circle cx="217.949" cy="224.538" r="12.3205" fill="#1F1F1F" stroke="#EBEBEB"/>
<circle cx="192.308" cy="224.538" r="12.3205" fill="#1F1F1F" stroke="#EBEBEB"/>
<circle cx="89.7436" cy="224.538" r="12.3205" fill="#1F1F1F" stroke="#EBEBEB"/>
<circle cx="141.026" cy="224.538" r="12.3205" fill="#1F1F1F" stroke="#EBEBEB"/>
<circle cx="115.385" cy="224.538" r="12.3205" fill="#1F1F1F" stroke="#EBEBEB"/>
<circle cx="12.8205" cy="224.538" r="3.20513" fill="#EBEBEB"/>
<circle cx="38.4615" cy="224.538" r="3.20513" fill="#EBEBEB"/>
<circle cx="89.7436" cy="224.538" r="3.20513" fill="#EBEBEB"/>
<circle cx="64.1026" cy="224.538" r="3.20513" fill="#EBEBEB"/>
<circle cx="115.385" cy="224.538" r="3.20513" fill="#EBEBEB"/>
<circle cx="141.026" cy="224.538" r="3.20513" fill="#EBEBEB"/>
<circle cx="192.308" cy="224.538" r="3.20513" fill="#EBEBEB"/>
<circle cx="217.949" cy="224.538" r="3.20513" fill="#EBEBEB"/>
<circle cx="166.667" cy="224.538" r="3.20513" fill="#EBEBEB"/>
<rect x="25.0726" y="172.688" width="21.4359" height="9.68376" rx="3.5" fill="#EBEBEB" stroke="#1F1F1F"/>
<rect x="19.7308" y="178.03" width="32.1197" height="33.188" rx="3.5" fill="#EBEBEB" stroke="#1F1F1F"/>
<rect x="24.0043" y="168.415" width="23.5727" height="5.41026" fill="#EBEBEB" stroke="#1F1F1F"/>
<rect x="65.6709" y="172.688" width="21.4359" height="9.68376" rx="3.5" fill="#EBEBEB" stroke="#1F1F1F"/>
<rect x="60.3291" y="178.03" width="32.1197" height="33.188" rx="3.5" fill="#EBEBEB" stroke="#1F1F1F"/>
<rect x="64.6025" y="168.415" width="23.5727" height="5.41026" fill="#EBEBEB" stroke="#1F1F1F"/>
<rect x="106.269" y="172.688" width="21.4359" height="9.68376" rx="3.5" fill="#EBEBEB" stroke="#1F1F1F"/>
<rect x="100.927" y="178.03" width="32.1197" height="33.188" rx="3.5" fill="#EBEBEB" stroke="#1F1F1F"/>
<rect x="105.201" y="168.415" width="23.5727" height="5.41026" fill="#EBEBEB" stroke="#1F1F1F"/>
<rect x="146.868" y="172.688" width="21.4359" height="9.68376" rx="3.5" fill="#EBEBEB" stroke="#1F1F1F"/>
<rect x="141.526" y="178.03" width="32.1197" height="33.188" rx="3.5" fill="#EBEBEB" stroke="#1F1F1F"/>
<rect x="145.799" y="168.415" width="23.5727" height="5.41026" fill="#EBEBEB" stroke="#1F1F1F"/>
<rect x="29.9146" y="42.9145" width="10.6838" height="28.8462" fill="#EBEBEB"/>
<rect x="32.0513" y="42.9145" width="6.41026" height="48.0769" rx="2" fill="#EBEBEB"/>
<rect x="34.188" y="90.9915" width="2.13675" height="64.1026" fill="#EBEBEB"/>
<rect x="70.5128" y="42.9145" width="10.6838" height="28.8462" fill="#EBEBEB"/>
<rect x="72.6496" y="42.9145" width="6.41026" height="48.0769" rx="2" fill="#EBEBEB"/>
<rect x="74.7864" y="90.9915" width="2.13675" height="64.1026" fill="#EBEBEB"/>
<rect x="0.5" y="48.7564" width="87.6752" height="12.8889" fill="#EBEBEB" stroke="#1F1F1F"/>
<rect x="234.974" y="87.718" width="9.75214" height="99.4958" fill="#EBEBEB" stroke="#1F1F1F" stroke-width="2"/>
<rect x="223.222" y="196.829" width="9.75214" height="21.5043" transform="rotate(-90 223.222 196.829)" fill="#EBEBEB" stroke="#1F1F1F" stroke-width="2"/>
<rect x="184.736" y="50.0214" width="9.75214" height="63.1751" transform="rotate(-55.1652 184.736 50.0214)" fill="#EBEBEB" stroke="#1F1F1F" stroke-width="2"/>
<circle cx="177.885" cy="40.2436" r="26.2436" fill="#EBEBEB" stroke="#1F1F1F" stroke-width="2"/>
<circle cx="177.885" cy="40.2436" r="18.6966" fill="#1F1F1F"/>
<circle cx="239.316" cy="192.487" r="10.1838" fill="#EBEBEB" stroke="#1F1F1F"/>
<circle cx="239.316" cy="192.487" r="7.47863" fill="#1F1F1F"/>
<circle cx="239.316" cy="81.3761" r="10.1838" fill="#EBEBEB" stroke="#1F1F1F"/>
<circle cx="239.316" cy="81.3761" r="7.47863" fill="#1F1F1F"/>
</svg>
