<?xml version="1.0" encoding="UTF-8"?>
<svg version="1.1" xmlns="http://www.w3.org/2000/svg" viewBox="0 0 768 201" preserveAspectRatio="xMidYMid meet">
<path d="M0 0 C2.46102725 1.31371561 4.81471088 2.66761321 7.1875 4.125 C8.71274102 5.04169805 10.23883949 5.9569704 11.765625 6.87109375 C13.01762695 7.62302002 13.01762695 7.62302002 14.29492188 8.39013672 C19.3116113 11.3757008 24.37717681 14.27672806 29.4375 17.1875 C31.66537782 18.4713312 33.89324219 19.75518573 36.12109375 21.0390625 C39.59631744 23.04038571 43.07176477 25.04132001 46.54736328 27.04199219 C48.89910938 28.39578072 51.25058512 29.75003694 53.60180664 31.10473633 C55.79974434 32.37100994 57.99812 33.6365238 60.19702148 34.90112305 C61.20450439 35.481604 62.2119873 36.06208496 63.25 36.66015625 C64.12140625 37.16168213 64.9928125 37.66320801 65.890625 38.17993164 C66.91671875 38.7805542 67.9428125 39.38117676 69 40 C69.84138519 40.25644287 70.68277039 40.51288574 71.5496521 40.77709961 C74.95685761 42.10201679 76.67099291 43.14728419 79 46 C80.94188703 52.96881968 80.15662654 60.65391204 79.9765625 67.8046875 C79.9579037 69.97084285 79.94367264 72.13704049 79.9336853 74.30325317 C79.89556186 79.9958617 79.79738668 85.68590522 79.68664551 91.37750244 C79.58421761 97.18881529 79.53864884 103.00054404 79.48828125 108.8125 C79.38113776 120.20945835 79.21054123 131.60451563 79 143 C78.30453568 143.38809845 77.60907135 143.7761969 76.89253235 144.17605591 C73.67383621 145.97304692 70.45605607 147.7716723 67.23828125 149.5703125 C66.14487427 150.18044189 65.05146729 150.79057129 63.92492676 151.41918945 C56.63435713 155.49630342 49.39271454 159.64898427 42.1875 163.875 C41.16736313 164.47311996 40.14722626 165.07123993 39.09617615 165.68748474 C38.17498489 166.22760696 37.25379364 166.76772919 36.3046875 167.32421875 C27.96574279 172.20173992 19.569459 176.97895014 11.17456055 181.75927734 C10.05090088 182.39945801 8.92724121 183.03963867 7.76953125 183.69921875 C6.77542236 184.26471436 5.78131348 184.83020996 4.75708008 185.4128418 C1.97730571 186.95148368 1.97730571 186.95148368 -0.5480957 188.83129883 C-3 190 -3 190 -5.45629883 189.38549805 C-6.29572021 188.92828369 -7.1351416 188.47106934 -8 188 C-8.89936279 187.51893799 -9.79872559 187.03787598 -10.7253418 186.54223633 C-11.70672119 185.97786865 -12.68810059 185.41350098 -13.69921875 184.83203125 C-14.81280762 184.19370361 -15.92639648 183.55537598 -17.07373047 182.89770508 C-18.27838145 182.20274268 -19.48296968 181.5076715 -20.6875 180.8125 C-21.94142546 180.0917912 -23.19549673 179.37133604 -24.44970703 178.65112305 C-27.03353538 177.16653227 -29.61614661 175.67985585 -32.19775391 174.19140625 C-35.74805424 172.14446733 -39.30151411 170.10308773 -42.85546875 168.0625 C-54.36849267 161.44396362 -65.84708942 154.77400372 -77.23779297 147.9465332 C-78.08615723 147.44081787 -78.93452148 146.93510254 -79.80859375 146.4140625 C-80.54907959 145.9701416 -81.28956543 145.5262207 -82.05249023 145.06884766 C-84.11077888 143.86350772 -84.11077888 143.86350772 -87 143 C-87 110.99 -87 78.98 -87 46 C-77.76 40.72 -68.52 35.44 -59 30 C-50.33055634 25.00474913 -41.66312346 20.00618051 -33 15 C-28.75090732 12.5448109 -24.50147847 10.09020543 -20.25152588 7.63650513 C-18.53313114 6.64413321 -16.81514548 5.65105303 -15.09716797 4.65795898 C-13.54860107 3.76379272 -13.54860107 3.76379272 -11.96875 2.8515625 C-10.59879883 2.05999756 -10.59879883 2.05999756 -9.20117188 1.25244141 C-5.4584453 -0.87712684 -4.21575707 -1.22449375 0 0 Z M-10.40625 25.97265625 C-12.092948 26.94090332 -12.092948 26.94090332 -13.8137207 27.92871094 C-15.04253331 28.63988266 -16.2712918 29.35114791 -17.5 30.0625 C-18.75653977 30.78585501 -20.01329691 31.50883254 -21.27026367 32.23144531 C-24.53365058 34.1089167 -27.79404371 35.99152339 -31.0536499 37.87554932 C-34.16579706 39.67350745 -37.28025522 41.46745152 -40.39453125 43.26171875 C-45.6863869 46.31130499 -50.97565077 49.36535375 -56.26293945 52.42285156 C-59.5038553 54.29033139 -62.75151098 56.14572627 -66 58 C-66.30194004 67.2487504 -66.5325392 76.49579291 -66.67355824 85.74840546 C-66.74126431 90.04563564 -66.83297041 94.3394831 -66.98071289 98.63476562 C-67.12255701 102.78480342 -67.19980138 106.93160226 -67.23340416 111.08387756 C-67.25732724 112.66312187 -67.30405712 114.24219886 -67.37449074 115.8200531 C-67.58923797 120.8327401 -67.56114196 125.19717664 -66 130 C-62.07830373 133.80565893 -58.00992936 135.78875442 -53 138 C-51.75022343 138.70781105 -50.50877285 139.43122462 -49.28710938 140.18652344 C-48.31580078 140.73856445 -47.34449219 141.29060547 -46.34375 141.859375 C-45.22959717 142.49552734 -44.11544434 143.13167969 -42.9675293 143.78710938 C-40.58945409 145.13328445 -38.20880258 146.47347456 -35.82348633 147.80664062 C-30.08858518 151.02305966 -24.48212594 154.27741578 -19.04296875 157.984375 C-10.35296809 164.2331997 -10.35296809 164.2331997 -0.21875 165.4453125 C3.11563801 163.72647974 5.87421321 161.86844269 8.82617188 159.58447266 C13.15237026 156.43116768 17.91199418 153.95093069 22.5625 151.3125 C24.61958707 150.11086929 26.67425814 148.90509362 28.7265625 147.6953125 C29.7568457 147.08848633 30.78712891 146.48166016 31.84863281 145.85644531 C32.88858398 145.24381836 33.92853516 144.63119141 35 144 C37.13275859 142.74730405 39.2655706 141.49469903 41.3984375 140.2421875 C43.41166579 139.05764418 45.42469454 137.87276165 47.4375 136.6875 C48.3850415 136.1303833 49.33258301 135.5732666 50.30883789 134.99926758 C51.17500732 134.48775146 52.04117676 133.97623535 52.93359375 133.44921875 C54.0791272 132.77379028 54.0791272 132.77379028 55.24780273 132.0847168 C56.95754322 131.11880012 56.95754322 131.11880012 58 130 C58.09436529 127.76070114 58.11742327 125.5183825 58.11352539 123.27709961 C58.11367142 122.5746965 58.11381744 121.8722934 58.1139679 121.14860535 C58.11326872 118.81648722 58.10547617 116.484448 58.09765625 114.15234375 C58.09579208 112.53951562 58.09436818 110.92668693 58.09336853 109.31385803 C58.08954323 105.06084643 58.07971285 100.80786876 58.06866455 96.55487061 C58.05845069 92.2182257 58.05387096 87.88157533 58.04882812 83.54492188 C58.03809059 75.02993231 58.02101403 66.51497037 58 58 C56.92903831 57.3822319 56.92903831 57.3822319 55.83644104 56.75198364 C52.51723371 54.83731032 49.19805745 52.92258314 45.87890625 51.0078125 C45.28201052 50.66347294 44.68511478 50.31913338 44.0701313 49.96435928 C37.40886066 46.12150094 30.74790063 42.2781123 24.08984375 38.4296875 C23.04119141 37.82382812 21.99253906 37.21796875 20.91210938 36.59375 C18.86233016 35.4093733 16.81286979 34.22444468 14.76367188 33.0390625 C11.84560299 31.35379987 8.92403855 29.67487932 6 28 C4.67766357 27.23864746 4.67766357 27.23864746 3.32861328 26.46191406 C2.52020996 26.00268555 1.71180664 25.54345703 0.87890625 25.0703125 C0.17451416 24.66828613 -0.52987793 24.26625977 -1.25561523 23.85205078 C-4.96496368 22.04020668 -7.06812702 24.0481647 -10.40625 25.97265625 Z " fill="#D6DBDC" transform="translate(689,1)"/>
<path d="M0 0 C3.95381378 1.97690689 6.29694351 3.93678713 9.5 6.9375 C10.57280471 7.93631818 11.64572458 8.93501268 12.71875 9.93359375 C13.26402344 10.44390137 13.80929688 10.95420898 14.37109375 11.47998047 C16.89779882 13.83778409 19.44933188 16.16818862 22 18.5 C23.00013531 19.41651904 24.00013494 20.33318615 25 21.25 C25.495 21.70375 25.99 22.1575 26.5 22.625 C32 27.66666667 37.5 32.70833333 43 37.75 C43.49580566 38.2044751 43.99161133 38.6589502 44.50244141 39.12719727 C45.49435752 40.03648066 46.48622022 40.94582234 47.47802734 41.85522461 C50.10125734 44.26035596 52.72562693 46.66422891 55.3515625 49.06640625 C55.89941406 49.56785156 56.44726562 50.06929687 57.01171875 50.5859375 C58.06346141 51.54854943 59.11552913 52.51080637 60.16796875 53.47265625 C62.14690134 55.28443105 64.10250752 57.10250752 66 59 C66.33 40.52 66.66 22.04 67 3 C75.25 3 83.5 3 92 3 C92 38.97 92 74.94 92 112 C88.27702139 110.1385107 86.55548726 108.74413327 83.75 105.8125 C80.3566057 102.27668222 76.79626986 99.04639806 73.09667969 95.84057617 C69.73766009 92.89185135 66.49757089 89.82030613 63.25 86.75 C57.05164819 80.91435216 50.8081315 75.13466161 44.52246094 69.39306641 C41.65451868 66.76887165 38.79560026 64.13490459 35.9375 61.5 C35.38876221 60.99509033 34.84002441 60.49018066 34.2746582 59.9699707 C31.80266909 57.68989059 29.36757911 55.38800051 27 53 C26.98969254 53.69935165 26.97938507 54.39870331 26.96876526 55.11924744 C26.87094968 61.69713663 26.76845843 68.2749342 26.66066074 74.85266781 C26.60540198 78.23467122 26.55197744 81.61668324 26.50268555 84.9987793 C26.44599054 88.88339427 26.38142415 92.76785878 26.31640625 96.65234375 C26.29133751 98.48199928 26.29133751 98.48199928 26.26576233 100.34861755 C26.24581711 101.46970413 26.22587189 102.59079071 26.20532227 103.74584961 C26.18977798 104.73846298 26.1742337 105.73107635 26.15821838 106.75376892 C26 109 26 109 25 110 C16.75 110 8.5 110 0 110 C0 73.7 0 37.4 0 0 Z " fill="#000000" transform="translate(173,39)"/>
<path d="M0 0 C20.79 0 41.58 0 63 0 C63 6.6 63 13.2 63 20 C50.46 20 37.92 20 25 20 C25 27.26 25 34.52 25 42 C36.22 42 47.44 42 59 42 C59 48.6 59 55.2 59 62 C47.78 62 36.56 62 25 62 C25 69.59 25 77.18 25 85 C38.53 85 52.06 85 66 85 C66 92.26 66 99.52 66 107 C44.22 107 22.44 107 0 107 C0 71.69 0 36.38 0 0 Z " fill="#000000" transform="translate(508,42)"/>
<path d="M0 0 C20.79 0 41.58 0 63 0 C63 6.6 63 13.2 63 20 C50.46 20 37.92 20 25 20 C25 27.26 25 34.52 25 42 C36.22 42 47.44 42 59 42 C59 48.6 59 55.2 59 62 C47.78 62 36.56 62 25 62 C25 69.59 25 77.18 25 85 C38.53 85 52.06 85 66 85 C66 92.26 66 99.52 66 107 C44.22 107 22.44 107 0 107 C0 71.69 0 36.38 0 0 Z " fill="#000000" transform="translate(90,42)"/>
<path d="M0 0 C0.66 0 1.32 0 2 0 C2.32572998 0.70680908 2.65145996 1.41361816 2.98706055 2.1418457 C9.06144539 15.30884037 15.1789842 28.44906953 21.5 41.5 C26.47439228 51.77152475 31.32106329 62.09591417 36.09423828 72.46240234 C38.9152057 78.57148732 41.78485194 84.65136416 44.7421875 90.6953125 C45.04815857 91.3223407 45.35412964 91.9493689 45.66937256 92.59539795 C47.14520522 95.61826961 48.62923133 98.63629691 50.12695312 101.6484375 C50.64966797 102.71578125 51.17238281 103.783125 51.7109375 104.8828125 C52.17806152 105.82527832 52.64518555 106.76774414 53.12646484 107.73876953 C53.41473145 108.48497559 53.70299805 109.23118164 54 110 C53.67 110.66 53.34 111.32 53 112 C44.42 112 35.84 112 27 112 C25.35 108.41125 23.7 104.8225 22 101.125 C21.47792969 99.99465332 20.95585937 98.86430664 20.41796875 97.69970703 C19.80888672 96.36721924 19.80888672 96.36721924 19.1875 95.0078125 C18.76855469 94.09660645 18.34960938 93.18540039 17.91796875 92.24658203 C17 90 17 90 17 88 C6.44 88 -4.12 88 -15 88 C-15.66 89.98 -16.32 91.96 -17 94 C-18.0994963 96.77949588 -19.30146104 99.51191517 -20.5 102.25 C-20.96212891 103.32894531 -20.96212891 103.32894531 -21.43359375 104.4296875 C-23.75887666 109.75887666 -23.75887666 109.75887666 -26 112 C-28.61376953 112.22705078 -28.61376953 112.22705078 -31.8828125 112.1953125 C-33.04941406 112.18886719 -34.21601563 112.18242187 -35.41796875 112.17578125 C-36.64128906 112.15902344 -37.86460937 112.14226562 -39.125 112.125 C-40.35605469 112.11597656 -41.58710938 112.10695313 -42.85546875 112.09765625 C-45.90383815 112.07402548 -48.95182382 112.04108054 -52 112 C-50.59649384 107.49986913 -48.82652811 103.27669748 -46.796875 99.03125 C-46.32590141 98.0351622 -46.32590141 98.0351622 -45.84541321 97.01895142 C-44.8166183 94.84452783 -43.78324863 92.67231027 -42.75 90.5 C-41.65477895 88.1874306 -40.56082194 85.874266 -39.4669342 83.56106567 C-38.72344762 81.98900712 -37.97957906 80.41712917 -37.2353363 78.84542847 C-33.81458689 71.61907121 -30.4350529 64.37394283 -27.0625 57.125 C-21.67844474 45.56790775 -16.25473635 34.0298052 -10.8125 22.5 C-10.44206573 21.71465881 -10.07163147 20.92931763 -9.68997192 20.12017822 C-8.63395258 17.88182607 -7.57692638 15.64395251 -6.51953125 13.40625 C-6.20763855 12.74507172 -5.89574585 12.08389343 -5.57440186 11.40267944 C-3.76451193 7.57669477 -1.9064709 3.77876132 0 0 Z M0 53 C-1.17154293 55.28929053 -2.33738074 57.58118362 -3.5 59.875 C-3.83386719 60.52597656 -4.16773438 61.17695312 -4.51171875 61.84765625 C-6.36843717 65.2524471 -6.36843717 65.2524471 -7 69 C-2.05 69 2.9 69 8 69 C6.61777376 64.85332129 5.33435798 61.44059185 3.375 57.625 C2.70597656 56.31402344 2.70597656 56.31402344 2.0234375 54.9765625 C1.68570313 54.32429688 1.34796875 53.67203125 1 53 C0.67 53 0.34 53 0 53 Z " fill="#000000" transform="translate(327,37)"/>
<path d="M0 0 C-0.46047195 5.1239751 -3.0789325 8.3275701 -6.0625 12.3125 C-6.53494141 12.95767578 -7.00738281 13.60285156 -7.49414062 14.26757812 C-8.65509704 15.85070051 -9.82652336 17.42613569 -11 19 C-14.14459288 17.77618811 -17.16341659 16.42968375 -20.1875 14.9375 C-25.59340144 12.54487141 -31.29121517 11.05765903 -37.15234375 12.546875 C-40.76059713 13.97918551 -40.76059713 13.97918551 -43 17 C-43.45979743 21.06154397 -43.65975877 23.16795604 -41.0703125 26.43359375 C-37.42927163 29.83056768 -32.97079797 31.67155189 -28.5 33.75 C-2.45152054 46.36050912 -2.45152054 46.36050912 2.875 60.5 C5.50410093 69.65490501 3.70631677 77.88806832 -0.6875 86.1875 C-7.58856231 94.58068389 -15.27733747 99.15094218 -26.125 100.75 C-27.40375 100.8325 -28.6825 100.915 -30 101 C-30.63679688 101.0515625 -31.27359375 101.103125 -31.9296875 101.15625 C-46.62884374 101.82187217 -59.91263076 97.05824616 -72 89 C-71.38903617 85.74574704 -70.28315701 83.72748915 -68.27734375 81.109375 C-67.73916016 80.40039062 -67.20097656 79.69140625 -66.64648438 78.9609375 C-66.08251953 78.23132813 -65.51855469 77.50171875 -64.9375 76.75 C-64.36966797 76.00492187 -63.80183594 75.25984375 -63.21679688 74.4921875 C-61.81687317 72.65699339 -60.41116779 70.82655313 -59 69 C-58.0821875 69.55429688 -57.164375 70.10859375 -56.21875 70.6796875 C-47.22061722 76.02900014 -39.79722992 79.88501885 -29 79 C-26.63706998 77.84367254 -24.85016245 76.85016245 -23 75 C-22.90141397 73.5444063 -22.87027857 72.08392081 -22.875 70.625 C-22.87242188 69.83351563 -22.86984375 69.04203125 -22.8671875 68.2265625 C-22.91382334 65.82656504 -22.91382334 65.82656504 -24 63 C-25.63700937 62.26350659 -27.31487746 61.61853395 -29 61 C-63.1146527 44.55435635 -63.1146527 44.55435635 -68.34375 29.74609375 C-70.15819636 22.15349975 -70.08660683 13.824771 -66 7 C-60.15432633 -1.29889403 -52.47374277 -6.61094596 -42.44140625 -8.71875 C-26.99139125 -10.49859173 -13.35302357 -8.26870598 0 0 Z " fill="#000000" transform="translate(72,49)"/>
<path d="M0 0 C22.77 0 45.54 0 69 0 C69 6.6 69 13.2 69 20 C61.74 20 54.48 20 47 20 C47 48.71 47 77.42 47 107 C39.08 107 31.16 107 23 107 C21.21142938 105.21142938 21.88009421 102.79876866 21.87557983 100.41790771 C21.87917511 99.61733948 21.88277039 98.81677124 21.88647461 97.99194336 C21.88632858 97.15299026 21.88618256 96.31403717 21.8860321 95.44966125 C21.8867315 92.66302956 21.89452515 89.87646384 21.90234375 87.08984375 C21.90420783 85.16313209 21.90563178 83.23641995 21.90663147 81.30970764 C21.91045741 76.22812603 21.92028834 71.1465728 21.93133545 66.06500244 C21.94154794 60.88383366 21.94612874 55.70266031 21.95117188 50.52148438 C21.96191054 40.34764174 21.97950795 30.17382767 22 20 C14.74 20 7.48 20 0 20 C0 13.4 0 6.8 0 0 Z " fill="#000000" transform="translate(427,42)"/>
<path d="M0 0 C2.04169709 -0.00438028 4.08124296 -0.04072914 6.12255859 -0.07861328 C7.40775391 -0.08248047 8.69294922 -0.08634766 10.01708984 -0.09033203 C11.78729492 -0.10265869 11.78729492 -0.10265869 13.59326172 -0.11523438 C16.54833984 0.37060547 16.54833984 0.37060547 18.49951172 2.20019531 C19.54833984 4.37060547 19.54833984 4.37060547 18.86083984 7.55810547 C17.54833984 10.37060547 17.54833984 10.37060547 15.54833984 11.37060547 C15.54469421 12.44500381 15.54104858 13.51940216 15.53729248 14.62635803 C15.50031162 24.7637814 15.44250501 34.90090188 15.3644371 45.03809452 C15.3249696 50.24944866 15.29277746 55.46063401 15.27734375 60.67211914 C15.26217251 65.70384644 15.22771834 70.73510967 15.18003082 75.76663017 C15.1652219 77.68386229 15.15729911 79.60116066 15.15645599 81.51844978 C15.15408312 84.2093332 15.12697811 86.89893748 15.09423828 89.58959961 C15.09926865 90.37794693 15.10429901 91.16629425 15.10948181 91.97853088 C15.00545342 97.52400102 13.76353013 100.81886833 10.54833984 105.37060547 C6.78180342 107.64474067 4.37981871 108.37060547 -0.01416016 108.37060547 C-4.33844776 107.11263089 -6.24507309 105.50084522 -9.45166016 102.37060547 C-11.07094766 99.13203045 -10.59579935 95.57962687 -10.59350586 92.02124023 C-10.59698029 91.15769928 -10.60045471 90.29415833 -10.60403442 89.40444946 C-10.61139639 87.52577422 -10.61673942 85.64709025 -10.62032509 83.76840401 C-10.62747631 80.79751094 -10.6431318 77.8267844 -10.66166687 74.85594177 C-10.71420673 66.40797174 -10.76214341 57.96009287 -10.77758789 49.51196289 C-10.7876482 44.34830041 -10.81692164 39.18505625 -10.8589077 34.02155876 C-10.87124945 32.05077205 -10.8763332 30.07992635 -10.87410927 28.10910225 C-10.87176617 25.35539951 -10.89384581 22.60290511 -10.92163086 19.84936523 C-10.91502945 19.03107742 -10.90842804 18.21278961 -10.90162659 17.3697052 C-10.89822212 14.84528233 -10.89822212 14.84528233 -11.45166016 11.37060547 C-13.34912146 9.50042393 -13.34912146 9.50042393 -15.45166016 8.37060547 C-15.88916016 5.30810547 -15.88916016 5.30810547 -15.45166016 2.37060547 C-10.70333831 -0.79494243 -5.58745688 -0.0013467 0 0 Z " fill="#000000" transform="translate(401.45166015625,41.62939453125)"/>
<path d="M0 0 C3.01784991 1.75607646 5.41468217 3.82936435 7 7 C7.34708476 12.29304255 7.51351894 15.73358414 4 20 C-0.2210773 22.55604681 -4.1880568 22.67023495 -9 22 C-12.75907225 20.08047374 -14.22937924 18.10588139 -15.5 14.1875 C-16.37195705 9.73636688 -15.36665555 6.8935301 -13 3 C-9.22352271 -0.34487989 -4.88903427 -1.05037846 0 0 Z M-9 7 C-10.01453953 9.32024404 -10.01453953 9.32024404 -10 12 C-8.66457328 14.78307606 -8.66457328 14.78307606 -7 17 C-4.6568787 16.74438677 -2.32156597 16.40729228 0 16 C1.39935013 13.20129973 1.25265405 11.09501208 1 8 C-0.12640605 6.03959519 -0.12640605 6.03959519 -2 5 C-6.04622502 4.63019987 -6.04622502 4.63019987 -9 7 Z " fill="#000000" transform="translate(492,179)"/>
<path d="M0 0 C10 0 10 0 14 2 C15.3899408 4.7798816 15.18488204 6.9186326 15 10 C14 12.375 14 12.375 13 14 C13.66 14.94875 14.32 15.8975 15 16.875 C17 20 17 20 17 22 C13.75 22.375 13.75 22.375 10 22 C7.5625 19 7.5625 19 6 16 C5.67 17.98 5.34 19.96 5 22 C3.35 22 1.7 22 0 22 C0 14.74 0 7.48 0 0 Z M5 5 C5 6.32 5 7.64 5 9 C6.32 9 7.64 9 9 9 C8.67 7.68 8.34 6.36 8 5 C7.01 5 6.02 5 5 5 Z " fill="#000000" transform="translate(521,179)"/>
<path d="M0 0 C2.5625 1.375 2.5625 1.375 4 3 C4 3.66 4 4.32 4 5 C2.35 5.66 0.7 6.32 -1 7 C-1.33 6.67 -1.66 6.34 -2 6 C-4.45809998 5.7499227 -4.45809998 5.7499227 -7 6 C-9.31563087 7.88500271 -9.31563087 7.88500271 -9.25 11 C-9.31563087 14.11499729 -9.31563087 14.11499729 -7 16 C-3.38245897 16.38079379 -1.11598788 15.84651134 2 14 C2.66 14.66 3.32 15.32 4 16 C3.8125 18 3.8125 18 3 20 C-1.05220936 22.70147291 -4.24327964 22.76172353 -9 22 C-12.00815661 20.71701809 -12.80850308 19.68458373 -15 17 C-16.37105716 12.71641464 -16.53517384 9.29568403 -14.8125 5.125 C-10.36462233 -0.08975313 -6.7663548 -0.94356507 0 0 Z " fill="#000000" transform="translate(453,179)"/>
<path d="M0 0 C4.29 0 8.58 0 13 0 C13 1.65 13 3.3 13 5 C10.69 5 8.38 5 6 5 C6 5.99 6 6.98 6 8 C7.98 8 9.96 8 12 8 C12 9.65 12 11.3 12 13 C10.02 13 8.04 13 6 13 C6 14.32 6 15.64 6 17 C8.64 17 11.28 17 14 17 C14 18.65 14 20.3 14 22 C9.38 22 4.76 22 0 22 C0 14.74 0 7.48 0 0 Z " fill="#000000" transform="translate(559,179)"/>
</svg>
